# xmcd CD database file
#
# Track frame offsets:
#	152
#	11492
#	26005
#	37807
#	49607
#	63127
#	73812
#	85987
#	99855
#	116947
#	130522
#	147767
#	165327
#	178320
#	189570
#	205227
#	221355
#	237307
#	249827
#	265052
#	277365
#	287462
#	301442
#	316040
#
# Disc length: 4387 seconds
#
# Revision: 0
# Processed by: cddbd v1.5.1PL2 Copyright (c) Steve Scherf et al.
# Submitted via: CDex 1.51
#
DISCID=4d112118
DTITLE=Herbie and Spence - Se Grootste Treffers
DYEAR=1900
DGENRE=Country
TTITLE0=Die Wilgerboom
TTITLE1=My sonnestraal
TTITLE2=Hy se dit met 'n blik en snaar
TTITLE3=Al die jare
TTITLE4=Ek bemin jou
TTITLE5=Kom saam vanaand
TTITLE6=Heidi
TTITLE7=Dit gaan snel verby
TTITLE8=Ek is nog so verlief op jou
TTITLE9=Wat 'n lieflike more
TTITLE10=Ek het jou verkeerd verstaan
TTITLE11=Wat sal ek doen
TTITLE12=Sprokie vir 'n stadskind
TTITLE13=Hier is my hart
TTITLE14=Ella
TTITLE15=My liewe liefling
TTITLE16=Bye Bye Fraulein
TTITLE17=Marina
TTITLE18=Vanaand gaan die poppe dans
TTITLE19=Nuwemaan
TTITLE20=Gaan my nie verby nie
TTITLE21=Mandolien
TTITLE22=Op pad na die suide
TTITLE23=Wens jy was hier
EXTD=
EXTT0=
EXTT1=
EXTT2=
EXTT3=
EXTT4=
EXTT5=
EXTT6=
EXTT7=
EXTT8=
EXTT9=
EXTT10=
EXTT11=
EXTT12=
EXTT13=
EXTT14=
EXTT15=
EXTT16=
EXTT17=
EXTT18=
EXTT19=
EXTT20=
EXTT21=
EXTT22=
EXTT23=
PLAYORDER=
